# xmcd
#
# Track frame offsets:
#	150
#	18582
#	34907
#	48467
#	63400
#	81572
#	96780
#	113817
#	131760
#	154310
#	172742
#	189067
#	202630
#	217560
#	235732
#	250942
#	267977
#	285272
#	303215
#
# Disc length: 4343 seconds
#
# Revision: 1
# Processed by: cddbd v1.5.2PL0 Copyright (c) Steve Scherf et al.
# Submitted via: audiograbber 1.83.01
#
DISCID=f410f513
DTITLE=Various Artist - CHM0301
DYEAR=2003
DGENRE=Country
TTITLE0=Tim McGraw - Red Rag Top vocal
TTITLE1=Gary Allan - Man To Man vocal
TTITLE2=Brad Mratin - Rub Me The Right Way vocal
TTITLE3=Trace Adkins - Chrome vocal
TTITLE4=Andy Griggs W/ Martina McBride - Practice Life vocal
TTITLE5=Mark Wills - Nineteen Something vocal
TTITLE6=Neal McCoy - The Luckiest Man In The World vocal
TTITLE7=Anthony Smith - John J.. Blanchard vocal
TTITLE8=Kid Rock W/ Sheryl Crow - Picture vocal
TTITLE9=Tim McGraw - Red Rag Top
TTITLE10=Gary Allan - Man To Man
TTITLE11=Brad Martin - Rub Me The Right Way
TTITLE12=Trace Adkins - Chrome13
TTITLE13=Andy Griggs W/ Martina McBride - Practice Life4
TTITLE14=Mark Wills - Nineteen Somethin'
TTITLE15=Neal McCoy - The Luckiest Man In The World6
TTITLE16=Jameson Clark - You Da Man
TTITLE17=Anthony Smith - John J Blanchard
TTITLE18=Kid Rock W/ Sheryl Crow - Picture
EXTD=
EXTT0=
EXTT1=
EXTT2=
EXTT3=
EXTT4=
EXTT5=
EXTT6=
EXTT7=
EXTT8=
EXTT9=
EXTT10=
EXTT11=
EXTT12=
EXTT13=
EXTT14=
EXTT15=
EXTT16=
EXTT17=
EXTT18=
PLAYORDER=
